<?xml version="1.0" encoding="UTF-8"?>
<svg xmlns="http://www.w3.org/2000/svg" xmlns:xlink="http://www.w3.org/1999/xlink" width="24pt" height="24pt" viewBox="0 0 24 24" version="1.1">
<g id="surface1">
<path style=" stroke:none;fill-rule:nonzero;fill:rgb(9.803922%,46.27451%,82.352941%);fill-opacity:1;" d="M 21 0 L 3 0 C 1.34375 0 0 1.34375 0 3 L 0 21 C 0 22.65625 1.34375 24 3 24 L 21 24 C 22.65625 24 24 22.65625 24 21 L 24 3 C 24 1.34375 22.65625 0 21 0 Z M 21 0 "/>
<path style=" stroke:none;fill-rule:nonzero;fill:rgb(98.039216%,98.039216%,98.039216%);fill-opacity:1;" d="M 20.25 12 L 16.5 12 L 16.5 9 C 16.5 8.171875 17.171875 8.25 18 8.25 L 19.5 8.25 L 19.5 4.5 L 16.5 4.5 C 14.015625 4.5 12 6.515625 12 9 L 12 12 L 9 12 L 9 15.75 L 12 15.75 L 12 24 L 16.5 24 L 16.5 15.75 L 18.75 15.75 Z M 20.25 12 "/>
</g>
</svg>
