<?xml version="1.0" encoding="UTF-8"?>
<svg xmlns="http://www.w3.org/2000/svg" xmlns:xlink="http://www.w3.org/1999/xlink" width="24pt" height="24pt" viewBox="0 0 24 24" version="1.1">
<g id="surface1">
<path style=" stroke:none;fill-rule:nonzero;fill:rgb(92.54902%,93.72549%,94.509804%);fill-opacity:1;" d="M 3 3 L 21 3 L 21 21 L 3 21 Z M 3 3 "/>
<path style=" stroke:none;fill-rule:nonzero;fill:rgb(81.176471%,84.705882%,86.27451%);fill-opacity:1;" d="M 12 13.894531 L 21 21 L 21 6.96875 Z M 12 13.894531 "/>
<path style=" stroke:none;fill-rule:nonzero;fill:rgb(95.686275%,26.27451%,21.176471%);fill-opacity:1;" d="M 21.75 3 L 21 3 L 12 10.105469 L 3 3 L 2.25 3 C 1.007812 3 0 4.007812 0 5.25 L 0 18.75 C 0 19.992188 1.007812 21 2.25 21 L 3 21 L 3 6.96875 L 12 13.890625 L 21 6.96875 L 21 21 L 21.75 21 C 22.992188 21 24 19.992188 24 18.75 L 24 5.25 C 24 4.007812 22.992188 3 21.75 3 Z M 21.75 3 "/>
</g>
</svg>
