<?xml version="1.0" encoding="UTF-8"?>
<svg xmlns="http://www.w3.org/2000/svg" xmlns:xlink="http://www.w3.org/1999/xlink" width="24pt" height="24pt" viewBox="0 0 24 24" version="1.1">
<g id="surface1">
<path style=" stroke:none;fill-rule:nonzero;fill:rgb(27.058824%,35.294118%,39.215686%);fill-opacity:1;" d="M 12 0 C 8.410156 0.00390625 5.503906 2.910156 5.5 6.5 L 5.5 10.5 C 5.5 10.777344 5.722656 11 6 11 L 8 11 C 8.277344 11 8.5 10.777344 8.5 10.5 L 8.5 6.5 C 8.5 4.566406 10.066406 3 12 3 C 13.933594 3 15.5 4.566406 15.5 6.5 L 15.5 10.5 C 15.5 10.777344 15.722656 11 16 11 L 18 11 C 18.277344 11 18.5 10.777344 18.5 10.5 L 18.5 6.5 C 18.496094 2.910156 15.589844 0.00390625 12 0 Z M 12 0 "/>
<path style=" stroke:none;fill-rule:nonzero;fill:rgb(100%,75.686275%,2.745098%);fill-opacity:1;" d="M 6 10 L 18 10 C 19.378906 10 20.5 11.121094 20.5 12.5 L 20.5 21.5 C 20.5 22.878906 19.378906 24 18 24 L 6 24 C 4.621094 24 3.5 22.878906 3.5 21.5 L 3.5 12.5 C 3.5 11.121094 4.621094 10 6 10 Z M 6 10 "/>
<path style=" stroke:none;fill-rule:nonzero;fill:rgb(27.058824%,35.294118%,39.215686%);fill-opacity:1;" d="M 14.5 15.5 C 14.503906 14.121094 13.390625 12.996094 12.011719 12.988281 C 10.628906 12.984375 9.503906 14.097656 9.5 15.480469 C 9.496094 16.433594 10.035156 17.308594 10.890625 17.730469 L 10.503906 20.429688 C 10.464844 20.703125 10.65625 20.957031 10.929688 20.996094 C 10.953125 21 10.976562 21 11 21 L 13 21 C 13.277344 21.003906 13.503906 20.78125 13.503906 20.503906 C 13.503906 20.480469 13.503906 20.453125 13.5 20.429688 L 13.113281 17.730469 C 13.957031 17.304688 14.496094 16.445312 14.5 15.5 Z M 14.5 15.5 "/>
</g>
</svg>
